<svg width="30" height="30" viewBox="0 0 30 30" fill="none" xmlns="http://www.w3.org/2000/svg">
<path d="M24.0325 2.72632C23.7937 1.92895 23.3517 1.23863 22.7673 0.750397C22.1829 0.26216 21.4849 0 20.7692 0C20.0536 0 19.3555 0.26216 18.7711 0.750397C18.1867 1.23863 17.7448 1.92895 17.506 2.72632H0V5.4538H17.506C17.7448 6.25118 18.1867 6.94149 18.7711 7.42973C19.3555 7.91796 20.0536 8.18012 20.7692 8.18012C21.4849 8.18012 22.1829 7.91796 22.7673 7.42973C23.3517 6.94149 23.7937 6.25118 24.0325 5.4538H30V2.72632H24.0325ZM9.23077 10.9088C8.51523 10.91 7.81751 11.1727 7.2333 11.6611C6.64908 12.1494 6.20695 12.8393 5.96755 13.6363H0V16.3637H5.96755C6.2063 17.1611 6.64829 17.8514 7.23268 18.3397C7.81706 18.8279 8.51512 19.0901 9.23077 19.0901C9.94642 19.0901 10.6445 18.8279 11.2289 18.3397C11.8132 17.8514 12.2552 17.1611 12.494 16.3637H30V13.6363H12.494C12.2546 12.8393 11.8125 12.1494 11.2282 11.6611C10.644 11.1727 9.94631 10.91 9.23077 10.9088ZM20.7692 21.8187C20.0537 21.8199 19.356 22.0827 18.7718 22.571C18.1875 23.0593 17.7454 23.7492 17.506 24.5462H0V27.2737H17.506C17.7448 28.0711 18.1867 28.7614 18.7711 29.2496C19.3555 29.7378 20.0536 30 20.7692 30C21.4849 30 22.1829 29.7378 22.7673 29.2496C23.3517 28.7614 23.7937 28.0711 24.0325 27.2737H30V24.5462H24.0325C23.793 23.7492 23.3509 23.0593 22.7667 22.571C22.1825 22.0827 21.4848 21.8199 20.7692 21.8187Z" fill="#20152C"/>
</svg>
